<mxfile host="app.diagrams.net" agent="Mozilla/5.0 (Macintosh; Intel Mac OS X 10_15_7) AppleWebKit/605.1.15 (KHTML, like Gecko) Version/17.6 Safari/605.1.15" version="24.8.0">
  <diagram id="C5RBs43oDa-KdzZeNtuy" name="Page-1">
    <mxGraphModel dx="1635" dy="877" grid="1" gridSize="10" guides="1" tooltips="1" connect="1" arrows="1" fold="1" page="1" pageScale="1" pageWidth="827" pageHeight="1169" math="0" shadow="0">
      <root>
        <mxCell id="WIyWlLk6GJQsqaUBKTNV-0" />
        <mxCell id="WIyWlLk6GJQsqaUBKTNV-1" parent="WIyWlLk6GJQsqaUBKTNV-0" />
        <mxCell id="WIyWlLk6GJQsqaUBKTNV-2" value="" style="rounded=0;html=1;jettySize=auto;orthogonalLoop=1;fontSize=11;endArrow=block;endFill=0;endSize=8;strokeWidth=1;shadow=0;labelBackgroundColor=none;edgeStyle=orthogonalEdgeStyle;" parent="WIyWlLk6GJQsqaUBKTNV-1" source="WIyWlLk6GJQsqaUBKTNV-3" target="WIyWlLk6GJQsqaUBKTNV-6" edge="1">
          <mxGeometry relative="1" as="geometry" />
        </mxCell>
        <mxCell id="WIyWlLk6GJQsqaUBKTNV-3" value="Marco fall through portal" style="rounded=1;whiteSpace=wrap;html=1;fontSize=12;glass=0;strokeWidth=1;shadow=0;" parent="WIyWlLk6GJQsqaUBKTNV-1" vertex="1">
          <mxGeometry x="40" y="40" width="120" height="40" as="geometry" />
        </mxCell>
        <mxCell id="UuyXS6E68IZAcK4OhggL-69" style="edgeStyle=none;curved=1;rounded=0;orthogonalLoop=1;jettySize=auto;html=1;fontSize=12;startSize=8;endSize=8;" edge="1" parent="WIyWlLk6GJQsqaUBKTNV-1" source="WIyWlLk6GJQsqaUBKTNV-6">
          <mxGeometry relative="1" as="geometry">
            <mxPoint x="-130" y="195" as="targetPoint" />
          </mxGeometry>
        </mxCell>
        <mxCell id="WIyWlLk6GJQsqaUBKTNV-6" value="Main map" style="rounded=1;whiteSpace=wrap;html=1;fontSize=12;glass=0;strokeWidth=1;shadow=0;" parent="WIyWlLk6GJQsqaUBKTNV-1" vertex="1">
          <mxGeometry x="50" y="170" width="100" height="50" as="geometry" />
        </mxCell>
        <mxCell id="UuyXS6E68IZAcK4OhggL-18" style="edgeStyle=none;curved=1;rounded=0;orthogonalLoop=1;jettySize=auto;html=1;entryX=0;entryY=0.5;entryDx=0;entryDy=0;fontSize=12;startSize=8;endSize=8;" edge="1" parent="WIyWlLk6GJQsqaUBKTNV-1" target="UuyXS6E68IZAcK4OhggL-17">
          <mxGeometry relative="1" as="geometry">
            <mxPoint x="160" y="370" as="sourcePoint" />
            <mxPoint x="340" y="250" as="targetPoint" />
          </mxGeometry>
        </mxCell>
        <mxCell id="WIyWlLk6GJQsqaUBKTNV-8" value="No" style="rounded=0;html=1;jettySize=auto;orthogonalLoop=1;fontSize=11;endArrow=block;endFill=0;endSize=8;strokeWidth=1;shadow=0;labelBackgroundColor=none;edgeStyle=orthogonalEdgeStyle;exitX=1;exitY=0.5;exitDx=0;exitDy=0;entryX=0;entryY=0.5;entryDx=0;entryDy=0;" parent="WIyWlLk6GJQsqaUBKTNV-1" source="WIyWlLk6GJQsqaUBKTNV-11" target="UuyXS6E68IZAcK4OhggL-21" edge="1">
          <mxGeometry x="-0.8621" y="15" relative="1" as="geometry">
            <mxPoint as="offset" />
            <mxPoint x="160" y="620" as="sourcePoint" />
            <mxPoint x="300" y="660" as="targetPoint" />
            <Array as="points">
              <mxPoint x="165" y="800" />
            </Array>
          </mxGeometry>
        </mxCell>
        <mxCell id="WIyWlLk6GJQsqaUBKTNV-9" value="No" style="edgeStyle=orthogonalEdgeStyle;rounded=0;html=1;jettySize=auto;orthogonalLoop=1;fontSize=11;endArrow=block;endFill=0;endSize=8;strokeWidth=1;shadow=0;labelBackgroundColor=none;" parent="WIyWlLk6GJQsqaUBKTNV-1" edge="1">
          <mxGeometry y="15" relative="1" as="geometry">
            <mxPoint as="offset" />
            <mxPoint x="100" y="390" as="sourcePoint" />
            <mxPoint x="100" y="470" as="targetPoint" />
            <Array as="points">
              <mxPoint x="100" y="440" />
              <mxPoint x="100" y="440" />
            </Array>
          </mxGeometry>
        </mxCell>
        <mxCell id="UuyXS6E68IZAcK4OhggL-32" style="edgeStyle=none;curved=1;rounded=0;orthogonalLoop=1;jettySize=auto;html=1;fontSize=12;startSize=8;endSize=8;entryX=0.5;entryY=0;entryDx=0;entryDy=0;" edge="1" parent="WIyWlLk6GJQsqaUBKTNV-1" source="WIyWlLk6GJQsqaUBKTNV-11" target="UuyXS6E68IZAcK4OhggL-33">
          <mxGeometry relative="1" as="geometry">
            <mxPoint x="100" y="710" as="targetPoint" />
          </mxGeometry>
        </mxCell>
        <mxCell id="WIyWlLk6GJQsqaUBKTNV-11" value="Win?" style="rhombus;whiteSpace=wrap;html=1;" parent="WIyWlLk6GJQsqaUBKTNV-1" vertex="1">
          <mxGeometry x="35" y="700" width="130" height="60" as="geometry" />
        </mxCell>
        <mxCell id="UuyXS6E68IZAcK4OhggL-20" style="edgeStyle=none;curved=1;rounded=0;orthogonalLoop=1;jettySize=auto;html=1;entryX=0.5;entryY=0;entryDx=0;entryDy=0;fontSize=12;startSize=8;endSize=8;" edge="1" parent="WIyWlLk6GJQsqaUBKTNV-1" source="WIyWlLk6GJQsqaUBKTNV-12" target="WIyWlLk6GJQsqaUBKTNV-11">
          <mxGeometry relative="1" as="geometry" />
        </mxCell>
        <mxCell id="WIyWlLk6GJQsqaUBKTNV-12" value="Next level on progression" style="rounded=1;whiteSpace=wrap;html=1;fontSize=12;glass=0;strokeWidth=1;shadow=0;" parent="WIyWlLk6GJQsqaUBKTNV-1" vertex="1">
          <mxGeometry x="40" y="470" width="120" height="40" as="geometry" />
        </mxCell>
        <mxCell id="UuyXS6E68IZAcK4OhggL-0" style="edgeStyle=none;curved=1;rounded=0;orthogonalLoop=1;jettySize=auto;html=1;exitX=1;exitY=1;exitDx=0;exitDy=0;fontSize=12;startSize=8;endSize=8;" edge="1" parent="WIyWlLk6GJQsqaUBKTNV-1" source="WIyWlLk6GJQsqaUBKTNV-6" target="WIyWlLk6GJQsqaUBKTNV-6">
          <mxGeometry relative="1" as="geometry" />
        </mxCell>
        <mxCell id="UuyXS6E68IZAcK4OhggL-4" style="edgeStyle=none;curved=1;rounded=0;orthogonalLoop=1;jettySize=auto;html=1;exitX=1;exitY=1;exitDx=0;exitDy=0;fontSize=12;startSize=8;endSize=8;" edge="1" parent="WIyWlLk6GJQsqaUBKTNV-1">
          <mxGeometry relative="1" as="geometry">
            <mxPoint x="190" y="210" as="sourcePoint" />
            <mxPoint x="190" y="210" as="targetPoint" />
          </mxGeometry>
        </mxCell>
        <mxCell id="UuyXS6E68IZAcK4OhggL-14" value="" style="edgeStyle=none;curved=1;rounded=0;orthogonalLoop=1;jettySize=auto;html=1;fontSize=12;startSize=8;endSize=8;entryX=0.5;entryY=0;entryDx=0;entryDy=0;" edge="1" parent="WIyWlLk6GJQsqaUBKTNV-1" source="WIyWlLk6GJQsqaUBKTNV-6" target="UuyXS6E68IZAcK4OhggL-19">
          <mxGeometry relative="1" as="geometry">
            <mxPoint x="150" y="210" as="sourcePoint" />
            <mxPoint x="100" y="350" as="targetPoint" />
          </mxGeometry>
        </mxCell>
        <mxCell id="UuyXS6E68IZAcK4OhggL-15" value="Yes" style="text;strokeColor=none;fillColor=none;align=left;verticalAlign=middle;spacingLeft=4;spacingRight=4;overflow=hidden;points=[[0,0.5],[1,0.5]];portConstraint=eastwest;rotatable=0;whiteSpace=wrap;html=1;" vertex="1" parent="WIyWlLk6GJQsqaUBKTNV-1">
          <mxGeometry x="160" y="350" width="60" height="20" as="geometry" />
        </mxCell>
        <mxCell id="UuyXS6E68IZAcK4OhggL-17" value="Level 1" style="rounded=1;whiteSpace=wrap;html=1;fontSize=12;glass=0;strokeWidth=1;shadow=0;" vertex="1" parent="WIyWlLk6GJQsqaUBKTNV-1">
          <mxGeometry x="280" y="350" width="120" height="40" as="geometry" />
        </mxCell>
        <mxCell id="UuyXS6E68IZAcK4OhggL-19" value="First game?" style="rhombus;whiteSpace=wrap;html=1;" vertex="1" parent="WIyWlLk6GJQsqaUBKTNV-1">
          <mxGeometry x="35" y="335" width="130" height="70" as="geometry" />
        </mxCell>
        <mxCell id="UuyXS6E68IZAcK4OhggL-22" style="edgeStyle=none;curved=1;rounded=0;orthogonalLoop=1;jettySize=auto;html=1;fontSize=12;startSize=8;endSize=8;entryX=0;entryY=0.5;entryDx=0;entryDy=0;" edge="1" parent="WIyWlLk6GJQsqaUBKTNV-1" source="UuyXS6E68IZAcK4OhggL-21" target="UuyXS6E68IZAcK4OhggL-23">
          <mxGeometry relative="1" as="geometry">
            <mxPoint x="430" y="660" as="targetPoint" />
          </mxGeometry>
        </mxCell>
        <mxCell id="UuyXS6E68IZAcK4OhggL-50" style="edgeStyle=none;curved=1;rounded=0;orthogonalLoop=1;jettySize=auto;html=1;entryX=0.5;entryY=1;entryDx=0;entryDy=0;fontSize=12;startSize=8;endSize=8;" edge="1" parent="WIyWlLk6GJQsqaUBKTNV-1" source="UuyXS6E68IZAcK4OhggL-21" target="UuyXS6E68IZAcK4OhggL-49">
          <mxGeometry relative="1" as="geometry" />
        </mxCell>
        <mxCell id="UuyXS6E68IZAcK4OhggL-21" value="How many times have you lost?" style="rounded=1;whiteSpace=wrap;html=1;fontSize=12;glass=0;strokeWidth=1;shadow=0;" vertex="1" parent="WIyWlLk6GJQsqaUBKTNV-1">
          <mxGeometry x="240" y="780" width="120" height="40" as="geometry" />
        </mxCell>
        <mxCell id="UuyXS6E68IZAcK4OhggL-26" style="edgeStyle=none;curved=1;rounded=0;orthogonalLoop=1;jettySize=auto;html=1;entryX=0.5;entryY=1;entryDx=0;entryDy=0;fontSize=12;startSize=8;endSize=8;" edge="1" parent="WIyWlLk6GJQsqaUBKTNV-1" source="UuyXS6E68IZAcK4OhggL-23" target="UuyXS6E68IZAcK4OhggL-25">
          <mxGeometry relative="1" as="geometry" />
        </mxCell>
        <mxCell id="UuyXS6E68IZAcK4OhggL-23" value="More than five times" style="rounded=1;whiteSpace=wrap;html=1;fontSize=12;glass=0;strokeWidth=1;shadow=0;" vertex="1" parent="WIyWlLk6GJQsqaUBKTNV-1">
          <mxGeometry x="430" y="780" width="120" height="40" as="geometry" />
        </mxCell>
        <mxCell id="UuyXS6E68IZAcK4OhggL-25" value="Restart the game" style="rounded=1;whiteSpace=wrap;html=1;fontSize=12;glass=0;strokeWidth=1;shadow=0;" vertex="1" parent="WIyWlLk6GJQsqaUBKTNV-1">
          <mxGeometry x="430" y="520" width="120" height="40" as="geometry" />
        </mxCell>
        <mxCell id="UuyXS6E68IZAcK4OhggL-31" value="" style="rounded=0;html=1;jettySize=auto;orthogonalLoop=1;fontSize=11;endArrow=block;endFill=0;endSize=8;strokeWidth=1;shadow=0;labelBackgroundColor=none;edgeStyle=orthogonalEdgeStyle;exitX=0.5;exitY=0;exitDx=0;exitDy=0;entryX=1;entryY=0.5;entryDx=0;entryDy=0;" edge="1" parent="WIyWlLk6GJQsqaUBKTNV-1" source="UuyXS6E68IZAcK4OhggL-25" target="WIyWlLk6GJQsqaUBKTNV-3">
          <mxGeometry x="0.3333" y="20" relative="1" as="geometry">
            <mxPoint as="offset" />
            <mxPoint x="380" y="210" as="sourcePoint" />
            <mxPoint x="520" y="250" as="targetPoint" />
          </mxGeometry>
        </mxCell>
        <mxCell id="UuyXS6E68IZAcK4OhggL-33" value="Any more levels?" style="rhombus;whiteSpace=wrap;html=1;" vertex="1" parent="WIyWlLk6GJQsqaUBKTNV-1">
          <mxGeometry x="35" y="840" width="130" height="60" as="geometry" />
        </mxCell>
        <mxCell id="UuyXS6E68IZAcK4OhggL-35" value="Yes&lt;div&gt;&lt;br&gt;&lt;/div&gt;" style="rounded=0;html=1;jettySize=auto;orthogonalLoop=1;fontSize=11;endArrow=block;endFill=0;endSize=8;strokeWidth=1;shadow=0;labelBackgroundColor=none;edgeStyle=orthogonalEdgeStyle;exitX=0;exitY=0.5;exitDx=0;exitDy=0;entryX=0;entryY=0.5;entryDx=0;entryDy=0;" edge="1" parent="WIyWlLk6GJQsqaUBKTNV-1" source="UuyXS6E68IZAcK4OhggL-33" target="WIyWlLk6GJQsqaUBKTNV-12">
          <mxGeometry x="-0.7857" y="-10" relative="1" as="geometry">
            <mxPoint as="offset" />
            <mxPoint x="20" y="680" as="sourcePoint" />
            <mxPoint x="160" y="720" as="targetPoint" />
          </mxGeometry>
        </mxCell>
        <mxCell id="UuyXS6E68IZAcK4OhggL-36" value="No" style="rounded=0;html=1;jettySize=auto;orthogonalLoop=1;fontSize=11;endArrow=block;endFill=0;endSize=8;strokeWidth=1;shadow=0;labelBackgroundColor=none;edgeStyle=orthogonalEdgeStyle;exitX=1;exitY=0.5;exitDx=0;exitDy=0;entryX=0;entryY=0.5;entryDx=0;entryDy=0;" edge="1" parent="WIyWlLk6GJQsqaUBKTNV-1" source="UuyXS6E68IZAcK4OhggL-33" target="UuyXS6E68IZAcK4OhggL-37">
          <mxGeometry x="-0.625" y="10" relative="1" as="geometry">
            <mxPoint as="offset" />
            <mxPoint x="100" y="840" as="sourcePoint" />
            <mxPoint x="260" y="820" as="targetPoint" />
          </mxGeometry>
        </mxCell>
        <mxCell id="UuyXS6E68IZAcK4OhggL-60" style="edgeStyle=none;curved=1;rounded=0;orthogonalLoop=1;jettySize=auto;html=1;fontSize=12;startSize=8;endSize=8;" edge="1" parent="WIyWlLk6GJQsqaUBKTNV-1" source="UuyXS6E68IZAcK4OhggL-37">
          <mxGeometry relative="1" as="geometry">
            <mxPoint x="420" y="960" as="targetPoint" />
          </mxGeometry>
        </mxCell>
        <mxCell id="UuyXS6E68IZAcK4OhggL-37" value="Final Boss battle&amp;nbsp;" style="rounded=1;whiteSpace=wrap;html=1;fontSize=12;glass=0;strokeWidth=1;shadow=0;" vertex="1" parent="WIyWlLk6GJQsqaUBKTNV-1">
          <mxGeometry x="240" y="940" width="120" height="40" as="geometry" />
        </mxCell>
        <mxCell id="UuyXS6E68IZAcK4OhggL-39" value="You won the game!!" style="rounded=1;whiteSpace=wrap;html=1;fontSize=12;glass=0;strokeWidth=1;shadow=0;" vertex="1" parent="WIyWlLk6GJQsqaUBKTNV-1">
          <mxGeometry x="430" y="1080" width="120" height="40" as="geometry" />
        </mxCell>
        <mxCell id="UuyXS6E68IZAcK4OhggL-41" value="&lt;span style=&quot;caret-color: rgb(0, 0, 0); color: rgb(0, 0, 0); font-family: Helvetica; font-size: 11px; font-style: normal; font-variant-caps: normal; font-weight: 400; letter-spacing: normal; orphans: auto; text-align: center; text-indent: 0px; text-transform: none; white-space: nowrap; widows: auto; word-spacing: 0px; -webkit-text-stroke-width: 0px; background-color: rgb(251, 251, 251); text-decoration: none; display: inline !important; float: none;&quot;&gt;No&lt;/span&gt;" style="text;whiteSpace=wrap;html=1;" vertex="1" parent="WIyWlLk6GJQsqaUBKTNV-1">
          <mxGeometry x="560" y="930" width="50" height="40" as="geometry" />
        </mxCell>
        <mxCell id="UuyXS6E68IZAcK4OhggL-43" style="edgeStyle=none;curved=1;rounded=0;orthogonalLoop=1;jettySize=auto;html=1;entryX=0.5;entryY=0;entryDx=0;entryDy=0;fontSize=12;startSize=8;endSize=8;exitX=0.5;exitY=1;exitDx=0;exitDy=0;" edge="1" parent="WIyWlLk6GJQsqaUBKTNV-1" source="UuyXS6E68IZAcK4OhggL-58" target="UuyXS6E68IZAcK4OhggL-39">
          <mxGeometry relative="1" as="geometry">
            <mxPoint x="490" y="830" as="sourcePoint" />
          </mxGeometry>
        </mxCell>
        <mxCell id="UuyXS6E68IZAcK4OhggL-45" value="&lt;span style=&quot;caret-color: rgb(0, 0, 0); color: rgb(0, 0, 0); font-family: Helvetica; font-size: 11px; font-style: normal; font-variant-caps: normal; font-weight: 400; letter-spacing: normal; orphans: auto; text-align: center; text-indent: 0px; text-transform: none; white-space: nowrap; widows: auto; word-spacing: 0px; -webkit-text-stroke-width: 0px; background-color: rgb(251, 251, 251); text-decoration: none; display: inline !important; float: none;&quot;&gt;Yes&lt;/span&gt;" style="text;whiteSpace=wrap;html=1;" vertex="1" parent="WIyWlLk6GJQsqaUBKTNV-1">
          <mxGeometry x="490" y="1040" width="190" height="40" as="geometry" />
        </mxCell>
        <mxCell id="UuyXS6E68IZAcK4OhggL-48" value="" style="edgeStyle=segmentEdgeStyle;endArrow=classic;html=1;curved=0;rounded=0;endSize=8;startSize=8;fontSize=12;entryX=1;entryY=0.5;entryDx=0;entryDy=0;exitX=1;exitY=0.5;exitDx=0;exitDy=0;" edge="1" parent="WIyWlLk6GJQsqaUBKTNV-1" source="UuyXS6E68IZAcK4OhggL-58" target="UuyXS6E68IZAcK4OhggL-25">
          <mxGeometry width="50" height="50" relative="1" as="geometry">
            <mxPoint x="560" y="810" as="sourcePoint" />
            <mxPoint x="600" y="770" as="targetPoint" />
            <Array as="points">
              <mxPoint x="600" y="960" />
              <mxPoint x="600" y="540" />
            </Array>
          </mxGeometry>
        </mxCell>
        <mxCell id="UuyXS6E68IZAcK4OhggL-62" style="edgeStyle=none;curved=1;rounded=0;orthogonalLoop=1;jettySize=auto;html=1;entryX=0.5;entryY=1;entryDx=0;entryDy=0;fontSize=12;startSize=8;endSize=8;" edge="1" parent="WIyWlLk6GJQsqaUBKTNV-1" source="UuyXS6E68IZAcK4OhggL-49" target="UuyXS6E68IZAcK4OhggL-53">
          <mxGeometry relative="1" as="geometry" />
        </mxCell>
        <mxCell id="UuyXS6E68IZAcK4OhggL-49" value="Less than five times" style="rounded=1;whiteSpace=wrap;html=1;fontSize=12;glass=0;strokeWidth=1;shadow=0;" vertex="1" parent="WIyWlLk6GJQsqaUBKTNV-1">
          <mxGeometry x="240" y="710" width="120" height="40" as="geometry" />
        </mxCell>
        <mxCell id="UuyXS6E68IZAcK4OhggL-53" value="Restart level" style="rounded=1;whiteSpace=wrap;html=1;fontSize=12;glass=0;strokeWidth=1;shadow=0;" vertex="1" parent="WIyWlLk6GJQsqaUBKTNV-1">
          <mxGeometry x="240" y="640" width="120" height="40" as="geometry" />
        </mxCell>
        <mxCell id="UuyXS6E68IZAcK4OhggL-58" value="Win?" style="rhombus;whiteSpace=wrap;html=1;" vertex="1" parent="WIyWlLk6GJQsqaUBKTNV-1">
          <mxGeometry x="425" y="930" width="130" height="60" as="geometry" />
        </mxCell>
        <mxCell id="UuyXS6E68IZAcK4OhggL-64" value="" style="edgeStyle=segmentEdgeStyle;endArrow=classic;html=1;curved=0;rounded=0;endSize=8;startSize=8;fontSize=12;exitX=0;exitY=0.5;exitDx=0;exitDy=0;" edge="1" parent="WIyWlLk6GJQsqaUBKTNV-1" source="UuyXS6E68IZAcK4OhggL-53">
          <mxGeometry width="50" height="50" relative="1" as="geometry">
            <mxPoint x="350" y="710" as="sourcePoint" />
            <mxPoint x="100" y="700" as="targetPoint" />
          </mxGeometry>
        </mxCell>
        <mxCell id="UuyXS6E68IZAcK4OhggL-66" value="&lt;span style=&quot;font-size: 11px;&quot;&gt;Yes&lt;/span&gt;&lt;br&gt;&lt;div&gt;&lt;span style=&quot;font-size: 11px;&quot;&gt;&lt;br&gt;&lt;/span&gt;&lt;/div&gt;" style="text;html=1;align=center;verticalAlign=middle;resizable=0;points=[];autosize=1;strokeColor=none;fillColor=none;fontSize=16;" vertex="1" parent="WIyWlLk6GJQsqaUBKTNV-1">
          <mxGeometry x="90" y="750" width="40" height="50" as="geometry" />
        </mxCell>
        <mxCell id="UuyXS6E68IZAcK4OhggL-68" value="" style="edgeStyle=segmentEdgeStyle;endArrow=classic;html=1;curved=0;rounded=0;endSize=8;startSize=8;fontSize=12;exitX=0.5;exitY=1;exitDx=0;exitDy=0;" edge="1" parent="WIyWlLk6GJQsqaUBKTNV-1" source="UuyXS6E68IZAcK4OhggL-17">
          <mxGeometry width="50" height="50" relative="1" as="geometry">
            <mxPoint x="240" y="630" as="sourcePoint" />
            <mxPoint x="100" y="700" as="targetPoint" />
            <Array as="points">
              <mxPoint x="340" y="560" />
              <mxPoint x="100" y="560" />
            </Array>
          </mxGeometry>
        </mxCell>
        <mxCell id="UuyXS6E68IZAcK4OhggL-74" style="edgeStyle=none;curved=1;rounded=0;orthogonalLoop=1;jettySize=auto;html=1;entryX=0.5;entryY=0;entryDx=0;entryDy=0;fontSize=12;startSize=8;endSize=8;exitX=0.1;exitY=-0.067;exitDx=0;exitDy=0;exitPerimeter=0;" edge="1" parent="WIyWlLk6GJQsqaUBKTNV-1" target="UuyXS6E68IZAcK4OhggL-73">
          <mxGeometry relative="1" as="geometry">
            <mxPoint x="-196" y="217.99" as="sourcePoint" />
          </mxGeometry>
        </mxCell>
        <mxCell id="UuyXS6E68IZAcK4OhggL-71" value="" style="edgeStyle=segmentEdgeStyle;endArrow=classic;html=1;curved=0;rounded=0;endSize=8;startSize=8;fontSize=12;exitX=0;exitY=0.5;exitDx=0;exitDy=0;entryX=0;entryY=0.5;entryDx=0;entryDy=0;" edge="1" parent="WIyWlLk6GJQsqaUBKTNV-1" source="UuyXS6E68IZAcK4OhggL-75">
          <mxGeometry width="50" height="50" relative="1" as="geometry">
            <mxPoint x="-340" y="500" as="sourcePoint" />
            <mxPoint x="-260" y="195" as="targetPoint" />
            <Array as="points">
              <mxPoint x="-320" y="440" />
              <mxPoint x="-320" y="195" />
            </Array>
          </mxGeometry>
        </mxCell>
        <mxCell id="UuyXS6E68IZAcK4OhggL-76" style="edgeStyle=none;curved=1;rounded=0;orthogonalLoop=1;jettySize=auto;html=1;entryX=0.5;entryY=0;entryDx=0;entryDy=0;fontSize=12;startSize=8;endSize=8;" edge="1" parent="WIyWlLk6GJQsqaUBKTNV-1" source="UuyXS6E68IZAcK4OhggL-73" target="UuyXS6E68IZAcK4OhggL-75">
          <mxGeometry relative="1" as="geometry" />
        </mxCell>
        <mxCell id="UuyXS6E68IZAcK4OhggL-73" value="Want to remove something?" style="rhombus;whiteSpace=wrap;html=1;" vertex="1" parent="WIyWlLk6GJQsqaUBKTNV-1">
          <mxGeometry x="-260" y="290" width="130" height="80" as="geometry" />
        </mxCell>
        <mxCell id="UuyXS6E68IZAcK4OhggL-75" value="Remove weapon/ability" style="rounded=1;whiteSpace=wrap;html=1;fontSize=12;glass=0;strokeWidth=1;shadow=0;" vertex="1" parent="WIyWlLk6GJQsqaUBKTNV-1">
          <mxGeometry x="-255" y="420" width="120" height="40" as="geometry" />
        </mxCell>
        <mxCell id="UuyXS6E68IZAcK4OhggL-77" value="&lt;span style=&quot;font-size: 11px;&quot;&gt;Yes,&amp;nbsp;what?&lt;/span&gt;&lt;div&gt;&lt;span style=&quot;font-size: 11px;&quot;&gt;&lt;br&gt;&lt;/span&gt;&lt;/div&gt;" style="text;html=1;align=center;verticalAlign=middle;resizable=0;points=[];autosize=1;strokeColor=none;fillColor=none;fontSize=16;" vertex="1" parent="WIyWlLk6GJQsqaUBKTNV-1">
          <mxGeometry x="-200" y="355" width="80" height="50" as="geometry" />
        </mxCell>
        <mxCell id="UuyXS6E68IZAcK4OhggL-80" value="" style="edgeStyle=segmentEdgeStyle;endArrow=classic;html=1;curved=0;rounded=0;endSize=8;startSize=8;fontSize=12;entryX=0.5;entryY=0;entryDx=0;entryDy=0;exitX=0.5;exitY=0;exitDx=0;exitDy=0;" edge="1" parent="WIyWlLk6GJQsqaUBKTNV-1" source="UuyXS6E68IZAcK4OhggL-82" target="WIyWlLk6GJQsqaUBKTNV-6">
          <mxGeometry width="50" height="50" relative="1" as="geometry">
            <mxPoint x="-195" y="170" as="sourcePoint" />
            <mxPoint x="100" y="160" as="targetPoint" />
            <Array as="points">
              <mxPoint x="-195" y="120" />
              <mxPoint x="100" y="120" />
            </Array>
          </mxGeometry>
        </mxCell>
        <mxCell id="UuyXS6E68IZAcK4OhggL-82" value="Inventory" style="rounded=1;whiteSpace=wrap;html=1;fontSize=12;glass=0;strokeWidth=1;shadow=0;" vertex="1" parent="WIyWlLk6GJQsqaUBKTNV-1">
          <mxGeometry x="-255" y="175" width="120" height="40" as="geometry" />
        </mxCell>
        <mxCell id="UuyXS6E68IZAcK4OhggL-84" value="&lt;span style=&quot;font-size: 11px;&quot;&gt;Option to check inventory&lt;/span&gt;" style="text;html=1;align=center;verticalAlign=middle;resizable=0;points=[];autosize=1;strokeColor=none;fillColor=none;fontSize=16;" vertex="1" parent="WIyWlLk6GJQsqaUBKTNV-1">
          <mxGeometry x="-100" y="170" width="150" height="30" as="geometry" />
        </mxCell>
        <mxCell id="UuyXS6E68IZAcK4OhggL-85" value="&lt;span style=&quot;font-size: 11px;&quot;&gt;Option to exit&lt;/span&gt;" style="text;html=1;align=center;verticalAlign=middle;resizable=0;points=[];autosize=1;strokeColor=none;fillColor=none;fontSize=16;" vertex="1" parent="WIyWlLk6GJQsqaUBKTNV-1">
          <mxGeometry x="-205" y="110" width="90" height="30" as="geometry" />
        </mxCell>
        <mxCell id="UuyXS6E68IZAcK4OhggL-89" value="" style="edgeStyle=segmentEdgeStyle;endArrow=classic;html=1;curved=0;rounded=0;endSize=8;startSize=8;fontSize=12;exitX=1;exitY=0.5;exitDx=0;exitDy=0;entryX=0;entryY=1;entryDx=0;entryDy=0;" edge="1" parent="WIyWlLk6GJQsqaUBKTNV-1" source="UuyXS6E68IZAcK4OhggL-73" target="WIyWlLk6GJQsqaUBKTNV-6">
          <mxGeometry width="50" height="50" relative="1" as="geometry">
            <mxPoint x="-30" y="340" as="sourcePoint" />
            <mxPoint x="20" y="290" as="targetPoint" />
          </mxGeometry>
        </mxCell>
        <mxCell id="UuyXS6E68IZAcK4OhggL-90" value="&lt;span style=&quot;font-size: 11px;&quot;&gt;No, back to main map&lt;/span&gt;" style="text;html=1;align=center;verticalAlign=middle;resizable=0;points=[];autosize=1;strokeColor=none;fillColor=none;fontSize=16;" vertex="1" parent="WIyWlLk6GJQsqaUBKTNV-1">
          <mxGeometry x="-135" y="305" width="130" height="30" as="geometry" />
        </mxCell>
      </root>
    </mxGraphModel>
  </diagram>
</mxfile>
